<svg width="64" height="64" viewBox="0 0 64 64" fill="none" xmlns="http://www.w3.org/2000/svg">
<g clip-path="url(#clip0_1_8718)">
<path d="M8 34.6667C8 33.9594 8.28095 33.2811 8.78105 32.781C9.28115 32.281 9.95942 32 10.6667 32H21.3333C22.0406 32 22.7189 32.281 23.219 32.781C23.719 33.2811 24 33.9594 24 34.6667V50.6667C24 51.3739 23.719 52.0522 23.219 52.5523C22.7189 53.0524 22.0406 53.3333 21.3333 53.3333H10.6667C9.95942 53.3333 9.28115 53.0524 8.78105 52.5523C8.28095 52.0522 8 51.3739 8 50.6667V34.6667Z" stroke="#22D3BB" stroke-width="3" stroke-linecap="round" stroke-linejoin="round"/>
<path d="M24 24C24 23.2928 24.281 22.6145 24.781 22.1144C25.2811 21.6143 25.9594 21.3334 26.6667 21.3334H37.3333C38.0406 21.3334 38.7189 21.6143 39.219 22.1144C39.719 22.6145 40 23.2928 40 24V50.6667C40 51.374 39.719 52.0522 39.219 52.5523C38.7189 53.0524 38.0406 53.3334 37.3333 53.3334H26.6667C25.9594 53.3334 25.2811 53.0524 24.781 52.5523C24.281 52.0522 24 51.374 24 50.6667V24Z" stroke="#22D3BB" stroke-width="3" stroke-linecap="round" stroke-linejoin="round"/>
<path d="M40 13.3333C40 12.626 40.281 11.9478 40.781 11.4477C41.2811 10.9476 41.9594 10.6666 42.6667 10.6666H53.3333C54.0406 10.6666 54.7189 10.9476 55.219 11.4477C55.7191 11.9478 56 12.626 56 13.3333V50.6666C56 51.3739 55.7191 52.0521 55.219 52.5522C54.7189 53.0523 54.0406 53.3333 53.3333 53.3333H42.6667C41.9594 53.3333 41.2811 53.0523 40.781 52.5522C40.281 52.0521 40 51.3739 40 50.6666V13.3333Z" stroke="#22D3BB" stroke-width="3" stroke-linecap="round" stroke-linejoin="round"/>
<path d="M10.6667 53.3334H48" stroke="#22D3BB" stroke-width="3" stroke-linecap="round" stroke-linejoin="round"/>
</g>
<defs>
<clipPath id="clip0_1_8718">
<rect width="64" height="64" fill="white"/>
</clipPath>
</defs>
</svg>
